<?xml version="1.0" encoding="UTF-8"?>
<!DOCTYPE svg PUBLIC "-//W3C//DTD SVG 1.1//EN" "http://www.w3.org/Graphics/SVG/1.1/DTD/svg11.dtd">
<svg xmlns="http://www.w3.org/2000/svg" version="1.1" width="299px" height="165px" style="shape-rendering:geometricPrecision; text-rendering:geometricPrecision; image-rendering:optimizeQuality; fill-rule:evenodd; clip-rule:evenodd" xmlns:xlink="http://www.w3.org/1999/xlink">
<g><path style="opacity:0.968" fill="#ed7620" d="M 50.5,-0.5 C 83.8333,-0.5 117.167,-0.5 150.5,-0.5C 152.435,0.809964 154.435,2.1433 156.5,3.5C 158.813,2.49953 160.813,1.16619 162.5,-0.5C 166.5,-0.5 170.5,-0.5 174.5,-0.5C 184.55,8.04383 194.216,17.2105 203.5,27C 210.167,27.6667 216.833,27.6667 223.5,27C 232.76,17.2358 242.427,8.06912 252.5,-0.5C 256.167,-0.5 259.833,-0.5 263.5,-0.5C 268.234,1.73934 271.401,5.40601 273,10.5C 273.5,38.8314 273.667,67.1647 273.5,95.5C 278.399,95.4334 280.732,92.9334 280.5,88C 278.264,77.8884 276.264,67.7218 274.5,57.5C 274.926,41.0502 282.926,35.0502 298.5,39.5C 298.5,42.1667 298.5,44.8333 298.5,47.5C 287.959,47.2246 284.126,52.2246 287,62.5C 289.409,71.0451 291.242,79.7117 292.5,88.5C 291.162,103.839 283.162,109.172 268.5,104.5C 266.664,105.919 264.664,107.086 262.5,108C 229.833,108.667 197.167,108.667 164.5,108C 161.452,107.394 158.952,105.894 157,103.5C 154.749,105.377 152.249,106.877 149.5,108C 116.833,108.667 84.1667,108.667 51.5,108C 45.2602,106.092 41.4269,101.925 40,95.5C 39.3333,67.8333 39.3333,40.1667 40,12.5C 41.5241,6.48484 45.0241,2.15151 50.5,-0.5 Z M 165.5,9.5 C 168.978,9.18424 172.312,9.68424 175.5,11C 181,16.5 186.5,22 192,27.5C 192.333,35.5 192.667,43.5 193,51.5C 194.484,55.4877 197.317,57.1544 201.5,56.5C 201.5,49.5 201.5,42.5 201.5,35.5C 203.833,35.5 206.167,35.5 208.5,35.5C 208.334,41.8421 208.5,48.1754 209,54.5C 213.324,61.4297 216.658,60.763 219,52.5C 219.499,46.8431 219.666,41.1764 219.5,35.5C 221.5,35.5 223.5,35.5 225.5,35.5C 225.334,42.175 225.5,48.8417 226,55.5C 230.269,56.6372 233.269,54.9706 235,50.5C 235.333,42.5 235.667,34.5 236,26.5C 241.167,21.3333 246.333,16.1667 251.5,11C 258.09,7.63641 262.257,9.46974 264,16.5C 264.667,41.1667 264.667,65.8333 264,90.5C 263.27,94.8963 260.77,97.7296 256.5,99C 227.5,99.6667 198.5,99.6667 169.5,99C 166.667,97.5 164.5,95.3333 163,92.5C 162.333,66.5 162.333,40.5 163,14.5C 163.847,12.8068 164.68,11.1401 165.5,9.5 Z M 80.5,62.5 C 93.5043,62.3334 106.504,62.5001 119.5,63C 120.833,63.6667 121.833,64.6667 122.5,66C 116.245,74.0919 108.911,80.9253 100.5,86.5C 92.0885,80.9253 84.7552,74.0919 78.5,66C 79.305,64.8873 79.9717,63.7206 80.5,62.5 Z"/></g>
<g><path style="opacity:0.946" fill="#ed7620" d="M -0.5,70.5 C -0.5,66.8333 -0.5,63.1667 -0.5,59.5C 9.2258,43.0586 18.7258,26.3919 28,9.5C 29.9768,6.15202 32.8102,4.65202 36.5,5C 35.9864,30.5148 35.153,56.0148 34,81.5C 33.2496,82.1258 32.4162,82.6258 31.5,83C 24.4333,83.8391 17.4333,83.5058 10.5,82C 5.25234,79.5877 1.58567,75.7544 -0.5,70.5 Z"/></g>
<g><path style="opacity:0.891" fill="#ed7620" d="M 161.5,120.5 C 162.458,120.953 163.292,121.619 164,122.5C 169.12,132.576 174.62,142.409 180.5,152C 174.833,152.667 169.167,152.667 163.5,152C 162.833,151.333 162.167,150.667 161.5,150C 156.833,149.333 152.167,149.333 147.5,150C 146.716,152.998 145.049,153.831 142.5,152.5C 148.845,141.806 155.178,131.139 161.5,120.5 Z M 154.5,136.5 C 156.977,139.438 158.977,142.771 160.5,146.5C 156.541,147.66 152.541,147.827 148.5,147C 150.891,143.717 152.891,140.217 154.5,136.5 Z"/></g>
<g><path style="opacity:0.895" fill="#ed7620" d="M 242.5,120.5 C 246.182,120.335 249.848,120.501 253.5,121C 256.188,121.782 257.188,123.282 256.5,125.5C 254.12,124.206 251.62,123.206 249,122.5C 247.72,122.613 246.887,123.28 246.5,124.5C 249.441,128.944 252.941,132.944 257,136.5C 262.245,143.771 260.745,149.271 252.5,153C 248.5,153.667 244.5,153.667 240.5,153C 237.924,152.218 235.924,150.718 234.5,148.5C 235,148.167 235.5,147.833 236,147.5C 238.734,149.365 241.734,150.699 245,151.5C 246.28,151.387 247.113,150.72 247.5,149.5C 245.229,145.726 242.396,142.393 239,139.5C 232.169,131.492 233.336,125.159 242.5,120.5 Z"/></g>
<g><path style="opacity:0.876" fill="#ed7620" d="M 12.5,121.5 C 19.8409,121.334 27.1742,121.5 34.5,122C 43.7125,125.6 46.5458,132.1 43,141.5C 39.2299,146.881 34.0633,148.881 27.5,147.5C 27.5,149.167 27.5,150.833 27.5,152.5C 22.5,152.5 17.5,152.5 12.5,152.5C 12.5,142.167 12.5,131.833 12.5,121.5 Z M 27.5,123.5 C 38.5186,123.666 43.0186,129 41,139.5C 37.8109,144.338 33.4776,146.005 28,144.5C 27.5004,137.508 27.3337,130.508 27.5,123.5 Z"/></g>
<g><path style="opacity:0.928" fill="#ed7620" d="M 47.5,121.5 C 56.5246,121.168 65.5246,121.502 74.5,122.5C 70.5546,123.491 66.5546,123.824 62.5,123.5C 62.5,125.833 62.5,128.167 62.5,130.5C 79.8333,131.167 79.8333,131.833 62.5,132.5C 62.5,138.5 62.5,144.5 62.5,150.5C 67.2137,150.173 71.8804,150.507 76.5,151.5C 66.8563,152.498 57.1896,152.832 47.5,152.5C 47.5,142.167 47.5,131.833 47.5,121.5 Z"/></g>
<g><path style="opacity:0.971" fill="#ed7620" d="M 76.5,121.5 C 87.1874,121.168 97.8541,121.501 108.5,122.5C 105.572,123.484 102.572,123.817 99.5,123.5C 99.5,133.167 99.5,142.833 99.5,152.5C 94.8333,152.5 90.1667,152.5 85.5,152.5C 85.5,142.833 85.5,133.167 85.5,123.5C 81.9878,124.055 78.9878,123.388 76.5,121.5 Z"/></g>
<g><path style="opacity:0.857" fill="#ed7620" d="M 110.5,121.5 C 117.841,121.334 125.174,121.5 132.5,122C 141.725,125.623 144.559,132.123 141,141.5C 138.659,144.835 135.493,147.002 131.5,148C 134.692,149.357 137.692,150.857 140.5,152.5C 135.151,153.176 130.484,151.51 126.5,147.5C 125.548,149.045 125.215,150.712 125.5,152.5C 120.5,152.5 115.5,152.5 110.5,152.5C 110.5,142.167 110.5,131.833 110.5,121.5 Z M 125.5,123.5 C 136.531,123.677 141.031,129.011 139,139.5C 136.722,142.951 133.555,144.951 129.5,145.5C 127.971,145.471 126.804,144.804 126,143.5C 125.5,136.842 125.334,130.175 125.5,123.5 Z"/></g>
<g><path style="opacity:0.864" fill="#ed7620" d="M 181.5,121.5 C 189.585,121.099 197.585,121.599 205.5,123C 214.122,129.786 215.622,137.953 210,147.5C 208.59,148.787 207.09,149.954 205.5,151C 197.585,152.401 189.585,152.901 181.5,152.5C 181.5,142.167 181.5,131.833 181.5,121.5 Z M 196.5,123.5 C 207.542,124.583 212.042,130.583 210,141.5C 207.322,147.098 202.822,150.098 196.5,150.5C 196.5,141.5 196.5,132.5 196.5,123.5 Z"/></g>
<g><path style="opacity:0.91" fill="#ed7620" d="M 216.5,121.5 C 221.5,121.5 226.5,121.5 231.5,121.5C 231.5,131.833 231.5,142.167 231.5,152.5C 226.5,152.5 221.5,152.5 216.5,152.5C 216.5,142.167 216.5,131.833 216.5,121.5 Z"/></g>
<g><path style="opacity:0.928" fill="#ed7620" d="M 262.5,121.5 C 271.525,121.168 280.525,121.502 289.5,122.5C 285.555,123.491 281.555,123.824 277.5,123.5C 277.5,125.833 277.5,128.167 277.5,130.5C 294.833,131.167 294.833,131.833 277.5,132.5C 277.5,138.5 277.5,144.5 277.5,150.5C 282.214,150.173 286.88,150.507 291.5,151.5C 281.856,152.498 272.19,152.832 262.5,152.5C 262.5,142.167 262.5,131.833 262.5,121.5 Z"/></g>
</svg>
